<svg width="48" height="48" viewBox="0 0 300 79.2849134732891" class="css-1j8o68f"><defs id="SvgjsDefs1430"></defs><g id="SvgjsG1431" featurekey="S6ay6y-0" transform="matrix(0.8938547372817993,0,0,0.8938547372817993,-4.4692737430167595,-5.273743102004408)" fill="#ff5722"><path xmlns="http://www.w3.org/2000/svg" d="M11.8,83.6c0,0.2,0,0.2,0,0.2c0,1.4,1,2.2,2.4,2.2c71,0,71,0,71,0c1.2,0,2.4-0.8,2.4-2.2c0-0.2,0-0.2,0-0.2  c0-1.2-1.2-2.4-2.4-2.4c-71,0-71,0-71,0C12.8,81.2,11.8,82.4,11.8,83.6"></path><path xmlns="http://www.w3.org/2000/svg" d="M19.5,36.8c0,0.8,0.8,1.6,1.8,1.6c56.8,0,56.8,0,56.8,0c1,0,1.8-0.8,1.8-1.6c0-0.8-0.8-1.4-1.8-1.4c-56.8,0-56.8,0-56.8,0  C20.3,35.4,19.5,36,19.5,36.8"></path><path xmlns="http://www.w3.org/2000/svg" d="M92.1,88.6c-84.7,0-84.7,0-84.7,0C6,88.6,5,89.8,5,91s0,1.2,0,1.2c0,1.4,1,2.4,2.4,2.4c84.7,0,84.7,0,84.7,0  c1.4,0,2.4-1,2.4-2.4c0-1.2,0-1.2,0-1.2C94.5,89.8,93.5,88.6,92.1,88.6"></path><path xmlns="http://www.w3.org/2000/svg" d="M26.3,48.8c0-0.6,0.6-1.2,1.4-1.2c0.6,0,1.2,0.6,1.2,1.2c0,21.9,0,21.9,0,21.9c0,0.8-0.6,1.2-1.2,1.2  c-0.8,0-1.4-0.4-1.4-1.2 M20.7,74.1c-1.2,0-2.4,1-2.4,2.2s1.2,2.2,2.4,2.2c12.2,0,12.2,0,12.2,0c1.2,0,2.4-1,2.4-2.2  s-1.2-2.2-2.4-2.2c-1,0-1,0-1,0c0-28.7,0-28.7,0-28.7c1,0,1,0,1,0c1.2,0,2.4-1,2.4-2.2S34.1,41,32.9,41c-12.2,0-12.2,0-12.2,0  c-1.2,0-2.4,1-2.4,2.2s1.2,2.2,2.4,2.2c1,0,1,0,1,0c0,28.7,0,28.7,0,28.7H20.7z"></path><path xmlns="http://www.w3.org/2000/svg" d="M51.8,70.7c0,0.8-0.6,1.2-1.2,1.2s-1.2-0.4-1.2-1.2c0-21.9,0-21.9,0-21.9c0-0.6,0.6-1.2,1.2-1.2s1.2,0.6,1.2,1.2 M55.8,45.4  c1.4,0,2.6-1,2.6-2.2S57.2,41,55.8,41c-12,0-12,0-12,0c-1.4,0-2.4,1-2.4,2.2s1,2.2,2.4,2.2c1,0,1,0,1,0c0,28.7,0,28.7,0,28.7  c-1,0-1,0-1,0c-1.4,0-2.4,1-2.4,2.2s1,2.2,2.4,2.2c12,0,12,0,12,0c1.4,0,2.6-1,2.6-2.2s-1.2-2.2-2.6-2.2c-0.8,0-0.8,0-0.8,0  c0-28.7,0-28.7,0-28.7H55.8z"></path><path xmlns="http://www.w3.org/2000/svg" d="M74.6,70.7c0,0.8-0.6,1.2-1.2,1.2c-0.6,0-1.2-0.4-1.2-1.2c0-21.9,0-21.9,0-21.9c0-0.6,0.6-1.2,1.2-1.2  c0.6,0,1.2,0.6,1.2,1.2 M78.8,45.4c1.2,0,2.4-1,2.4-2.2S80,41,78.8,41c-12.2,0-12.2,0-12.2,0c-1.4,0-2.4,1-2.4,2.2s1,2.2,2.4,2.2  c1,0,1,0,1,0c0,28.7,0,28.7,0,28.7c-1,0-1,0-1,0c-1.4,0-2.4,1-2.4,2.2s1,2.2,2.4,2.2c12.2,0,12.2,0,12.2,0c1.2,0,2.4-1,2.4-2.2  s-1.2-2.2-2.4-2.2c-1,0-1,0-1,0c0-28.7,0-28.7,0-28.7H78.8z"></path><path xmlns="http://www.w3.org/2000/svg" d="M11.6,35.8c0.8,1.2,2.4,1.2,3.6,0.6c32.5-22.3,32.5-22.3,32.5-22.3c1.2-0.6,3-0.6,4,0c32.5,22.3,32.5,22.3,32.5,22.3  c1.2,0.6,2.8,0.6,3.6-0.6c0.8-0.8,0.8-0.8,0.8-0.8c0.8-1,0.6-2.4-0.6-3.2C51.8,7.3,51.8,7.3,51.8,7.3c-1-0.8-2-1.4-2-1.4l0,0  c0,0-1,0.6-2,1.4C11.4,31.8,11.4,31.8,11.4,31.8C10.2,32.6,10,34,10.8,35"></path><path xmlns="http://www.w3.org/2000/svg" d="M72.2,33.2c1.2,0,1.4-0.6,0.4-1.4c-20.9-14-20.9-14-20.9-14c-1.2-0.6-3-0.6-4,0c-20.9,14-20.9,14-20.9,14  c-1.2,0.8-0.8,1.4,0.4,1.4"></path></g><g id="SvgjsG1432" featurekey="j5pGhi-0" transform="matrix(4.201876163482666,0,0,4.201876163482666,93.72197700031272,-10.28480876818497)" fill="#303841"><path d="M1.4941 4.901999999999999 l4.5996 0 q1.71875 0 2.646484375 0.41015625 t1.46 1.2598 t0.53223 1.875 q0 0.966796875 -0.4736328125 1.7578125 t-1.3916 1.2793 q1.142578125 0.390625 1.748046875 0.9033203125 t0.94727 1.2451 t0.3418 1.5918 q0 1.748046875 -1.279296875 2.954101563 t-3.418 1.2061 l-5.7129 0 l0 -14.482 z M2.9102 6.318 l0 4.6387 l2.5684 0 q1.50390625 0 2.211914063 -0.283203125 t1.123 -0.88379 t0.41504 -1.3428 q0 -0.99609375 -0.693359375 -1.5625 t-2.207 -0.56641 l-3.418 0 z M2.9102 12.412099999999999 l0 5.5566 l3.5352 0 q1.58203125 0 2.319335938 -0.3125 t1.1865 -0.9668 t0.44922 -1.4355 q0 -0.95703125 -0.6298828125 -1.6796875 t-1.7334 -0.98633 q-0.7421875 -0.17578125 -2.568359375 -0.17578125 l-2.5586 0 z M23.30090625 15.6348 l1.1523 0.61523 q-0.556640625 1.123046875 -1.30859375 1.806640625 t-1.6895 1.04 t-2.1191 0.35645 q-2.6171875 0 -4.091796875 -1.713867188 t-1.4746 -3.8721 q0 -2.041015625 1.25 -3.6328125 q1.58203125 -2.03125 4.248046875 -2.03125 q2.724609375 0 4.365234375 2.080078125 q1.162109375 1.46484375 1.171875 3.65234375 l-9.6191 0 q0.0390625 1.875 1.19140625 3.071289063 t2.8418 1.1963 q0.8203125 0 1.591796875 -0.2880859375 t1.3135 -0.75684 t1.1768 -1.5234 z M23.30090625 12.7539 q-0.2734375 -1.103515625 -0.80078125 -1.762695313 t-1.3965 -1.0645 t-1.8262 -0.40527 q-1.572265625 0 -2.705078125 1.015625 q-0.8203125 0.7421875 -1.240234375 2.216796875 l7.9688 0 z M37.76384375 10.7031 l-1.0938 0.68359 q-1.416015625 -1.89453125 -3.8671875 -1.89453125 q-1.962890625 0 -3.256835938 1.259765625 t-1.2939 3.0664 q0 1.171875 0.595703125 2.211914063 t1.6309 1.6064 t2.3242 0.56641 q2.373046875 0 3.8671875 -1.875 l1.0938 0.71289 q-0.771484375 1.15234375 -2.065429688 1.782226563 t-2.9541 0.62988 q-2.529296875 0 -4.204101563 -1.611328125 t-1.6748 -3.916 q0 -1.5625 0.7861328125 -2.895507813 t2.1484 -2.0801 t3.0615 -0.74707 q1.0546875 0 2.045898438 0.322265625 t1.6846 0.84473 t1.1719 1.333 z M40.3808875 4.59 l1.3867 0 l0 8.457 l4.9512 -4.3164 l2.0313 0 l-4.4824 4.0723 l4.8242 6.6406 l-1.9531 0 l-4.2188 -5.7617 l-1.1523 0.94727 l0 4.8145 l-1.3867 0 l0 -14.854 z"></path></g></svg>
